<?xml version="1.0" encoding="UTF-8"?><svg id="Capa_1" xmlns="http://www.w3.org/2000/svg" width="64" height="64" viewBox="0 0 64 64"><defs><style>.cls-1{fill:#fff;}.cls-2{fill:#ff1c1c;}.cls-3{fill:#df1818;}.cls-4{fill:#dfdfdf;}</style></defs><g id="Pokéball"><g id="Colours"><path id="Down" class="cls-1" d="M31.9938,42.3337c-4.976,0-9.1267-3.5226-10.112-8.2029H5.3282c1.1701,13.61,12.5877,24.2886,26.4933,24.2886s25.3355-10.6786,26.4933-24.2886h-16.2088c-.9853,4.6927-5.1361,8.2029-10.112,8.2029Z"/><path id="Shadow_Down" class="cls-4" d="M37.9059,57.7296c11.0358-2.5865,19.4235-12.0334,20.4088-23.5988h-6.5279c-.6528,10.4938-6.1584,19.3865-13.8809,23.5988Z"/><path id="Center" class="cls-1" d="M38.0906,32h0q-.0123,0,0,0c-.0123-.7513-.1478-1.4657-.3941-2.1308-.8622-2.3155-3.0915-3.9537-5.7026-3.9537s-4.8405,1.6504-5.7026,3.9537c-.2463.6651-.3818,1.3795-.3818,2.1308h.0123c0,.7513.1355,1.4657.3818,2.1308.8622,2.3155,3.0915,3.9537,5.7026,3.9537s4.8405-1.6504,5.7026-3.9537c.2463-.6528.3818-1.3795.3818-2.1308h0Z"/><path id="Up" class="cls-2" d="M32.0062,21.6786c4.976,0,9.1267,3.5226,10.112,8.2029h16.5537c-1.1701-13.6223-12.5877-24.3009-26.5056-24.3009S6.8431,16.2592,5.673,29.8692h16.2211c.9853-4.6804,5.1361-8.1906,10.112-8.1906Z"/><path id="Shadow_Up" class="cls-3" d="M51.7868,29.8692h6.8727c-1.01-11.7625-9.6809-21.3449-21-23.722,7.8581,4.1507,13.4622,13.1296,14.1273,23.722Z"/></g><path id="Line" d="M32.1663,5.5806c13.9179,0,25.3355,10.6786,26.4933,24.2886h-16.5537c-.9853-4.6804-5.1361-8.2029-10.112-8.2029s-9.1267,3.5226-10.112,8.2029H5.673c1.1701-13.61,12.5877-24.2886,26.4933-24.2886ZM37.6965,29.8692c.2463.6651.3818,1.3795.3818,2.1308h.0123c0,.7513-.1355,1.4657-.3818,2.1308-.8622,2.3155-3.0915,3.9537-5.7026,3.9537s-4.8405-1.6504-5.7026-3.9537c-.2463-.6651-.3818-1.3795-.3818-2.1308h-.0123c0-.7513.1355-1.4657.3818-2.1308.8622-2.3155,3.0915-3.9537,5.7026-3.9537s4.8405,1.6504,5.7026,3.9537ZM31.8214,58.4317c-13.9179,0-25.3355-10.6786-26.4933-24.2886h16.5537c.9853,4.6804,5.1361,8.2029,10.112,8.2029s9.1267-3.5226,10.112-8.2029h16.2211c-1.1701,13.5976-12.5877,24.2886-26.5056,24.2886ZM31.9938.5062C14.6026.5062.5,14.6088.5,32s14.1026,31.4938,31.4938,31.4938,31.5062-14.0903,31.5062-31.4938S49.3974.5062,31.9938.5062Z"/></g></svg>